<svg width="27" height="25" viewBox="0 0 27 25" fill="none" xmlns="http://www.w3.org/2000/svg">
<path d="M10.2841 19.7917C5.71378 21.25 5.71378 17.1875 3.90692 16.6667M16.6612 21.875V18.2292C16.6612 17.1875 16.7675 16.7708 16.1298 16.1458C19.1058 15.8333 21.9755 14.6875 21.9755 9.89584C21.9742 8.65101 21.4787 7.45554 20.5938 6.56251C21.0088 5.48122 20.9706 4.28296 20.4875 3.22918C20.4875 3.22918 19.3184 2.91668 16.7675 4.58334C14.607 4.03187 12.3383 4.03187 10.1778 4.58334C7.62693 2.91668 6.45778 3.22918 6.45778 3.22918C5.97469 4.28296 5.93649 5.48122 6.3515 6.56251C5.46662 7.45554 4.97107 8.65101 4.96978 9.89584C4.96978 14.6875 7.8395 15.8333 10.8155 16.1458C10.1778 16.7708 10.1778 17.3958 10.2841 18.2292V21.875" stroke="white" stroke-width="2" stroke-linecap="round" stroke-linejoin="round"/>
</svg>
