<?xml version="1.0" standalone="no"?>
<!DOCTYPE svg PUBLIC "-//W3C//DTD SVG 20010904//EN"
 "http://www.w3.org/TR/2001/REC-SVG-20010904/DTD/svg10.dtd">
<svg version="1.0" xmlns="http://www.w3.org/2000/svg"
 width="700.000000pt" height="700.000000pt" viewBox="0 0 700.000000 700.000000"
 preserveAspectRatio="xMidYMid meet">
<metadata>
Created by potrace 1.14, written by Peter Selinger 2001-2017
</metadata>
<g transform="translate(0.000000,700.000000) scale(0.100000,-0.100000)"
fill="#000000" stroke="none">
<path d="M3239 6846 c-2 -2 -40 -7 -84 -10 -74 -6 -246 -29 -305 -41 -14 -3
-38 -8 -55 -11 -224 -40 -529 -136 -754 -236 -121 -53 -301 -144 -371 -186
-287 -175 -493 -335 -705 -547 -202 -203 -346 -386 -511 -652 -67 -107 -231
-443 -217 -443 3 0 1 -6 -4 -12 -25 -32 -113 -304 -150 -463 -15 -65 -54 -286
-58 -329 -3 -28 -9 -85 -14 -126 -5 -41 -7 -181 -6 -310 3 -205 8 -287 31
-440 4 -34 52 -269 60 -300 116 -448 315 -851 598 -1214 98 -125 124 -154 276
-307 273 -276 560 -481 920 -660 349 -173 748 -294 1135 -345 249 -33 649 -37
870 -9 390 49 734 138 1013 262 29 12 55 23 58 23 12 0 286 140 367 188 387
229 742 543 1005 890 68 89 182 257 182 269 0 3 6 14 14 22 26 30 154 271 189
356 9 22 30 74 47 115 76 183 161 485 189 675 18 122 20 138 28 225 12 129 9
522 -5 636 -14 107 -14 112 -32 214 -7 36 -14 76 -16 90 -10 55 -55 222 -84
315 -198 620 -581 1171 -1109 1594 -41 34 -77 60 -199 148 -132 95 -400 242
-622 341 -192 85 -581 199 -775 227 -27 4 -59 9 -70 11 -11 3 -51 9 -90 14
-38 5 -88 12 -110 15 -42 7 -630 17 -636 11z"/>
</g>
</svg>
